<?xml version="1.0" encoding="iso-8859-1"?>
<!-- Uploaded to: SVG Repo, www.svgrepo.com, Generator: SVG Repo Mixer Tools -->
<svg height="800px" width="800px" version="1.1" id="Layer_1" xmlns="http://www.w3.org/2000/svg" xmlns:xlink="http://www.w3.org/1999/xlink" 
	 viewBox="0 0 512 512" xml:space="preserve">
<g>
	<path style="fill:#FFDBCC;" d="M111.31,310.777v50.306l55.895,22.358L144.847,277.24C126.324,277.24,111.31,292.256,111.31,310.777
		z"/>
	<path style="fill:#FFDBCC;" d="M346.069,260.472v50.306h44.716l-11.179-83.843C361.084,226.934,346.069,241.95,346.069,260.472z"/>
</g>
<path style="fill:#FFC1A6;" d="M413.144,260.472c0-18.521-15.015-33.537-33.537-33.537v83.843l33.537-33.537V260.472z"/>
<path style="fill:#FFDBCC;" d="M245.458,193.397c-18.523,0-33.537,15.015-33.537,33.537l-22.358,83.843h111.79l-22.358-83.843
	C278.995,208.412,263.979,193.397,245.458,193.397z"/>
<g>
	<path style="fill:#FEA680;" d="M312.532,210.166c-18.523,0-33.537,15.016-33.537,33.537v67.074h67.074v-67.074
		C346.069,225.182,331.054,210.166,312.532,210.166z"/>
	<path style="fill:#FEA680;" d="M178.384,75.459c-18.523,0-33.537,15.015-33.537,33.537v201.782h67.074V108.996
		C211.921,90.473,196.905,75.459,178.384,75.459z"/>
	<path style="fill:#FEA680;" d="M381.842,277.24L262.227,512c83.349,0,150.917-67.568,150.917-150.917V277.24H381.842z"/>
</g>
<path style="fill:#FFC1A6;" d="M144.847,277.24v83.843H111.31c0,83.35,67.568,150.917,150.917,150.917
	c64.827,0,117.38-67.567,117.38-150.917V277.24H144.847z"/>
<g>
	<path style="fill:#42C8C6;" d="M178.384,50.306c-4.63,0-8.384-3.753-8.384-8.384V8.384C170,3.753,173.753,0,178.384,0
		s8.384,3.753,8.384,8.384v33.537C186.768,46.553,183.014,50.306,178.384,50.306z"/>
	<path style="fill:#42C8C6;" d="M130.956,74.249c-2.145,0-4.292-0.818-5.928-2.455l-23.715-23.715
		c-3.274-3.275-3.274-8.583,0-11.858c3.274-3.273,8.583-3.273,11.856,0l23.714,23.715c3.274,3.275,3.274,8.583,0,11.858
		C135.246,73.431,133.101,74.249,130.956,74.249z"/>
	<path style="fill:#42C8C6;" d="M225.812,74.249c-2.145,0-4.292-0.818-5.928-2.455c-3.274-3.275-3.274-8.583,0-11.858l23.714-23.716
		c3.274-3.273,8.583-3.273,11.856,0c3.274,3.275,3.274,8.583,0,11.858L231.74,71.793C230.104,73.431,227.958,74.249,225.812,74.249z
		"/>
</g>
</svg>